<svg width="80" height="80" viewBox="0 0 80 80" fill="none" xmlns="http://www.w3.org/2000/svg">
<rect width="80" height="80" rx="40" fill="none"/>
<path d="M23.9601 21.1L22.8301 21V50.43L24.1401 50.54C28.7917 50.9322 33.3534 52.049 37.6601 53.85L39.0201 54.41V25.11L37.0201 24.3C32.8554 22.5541 28.4409 21.4774 23.9401 21.11L23.9601 21.1Z" fill="#5E5E5E"/>
<path d="M25.9805 23.22L24.9805 23.14V48.79L26.1205 48.89C30.1805 49.23 34.1205 51.1 37.9105 52.67L39.3204 53.17V25.82L37.3705 25.1C33.7405 23.58 29.8804 23.55 25.9604 23.22H25.9805Z" fill="#E11F26"/>
<path d="M19.1602 25.35V54.77H36.0302L35.7501 54.66L35.1202 54.43L34.2202 54.12L33.5701 53.9L32.6702 53.62L32.0101 53.43L31.1002 53.19L30.4302 53.03L29.5001 52.82L28.8401 52.68L27.8401 52.5L27.2802 52.43C26.9302 52.37 26.5701 52.33 26.2101 52.28L25.6702 52.2C25.1402 52.14 24.6002 52.08 24.0602 52.04L22.0602 51.87C21.8736 51.8572 21.699 51.7733 21.5725 51.6356C21.446 51.4979 21.3771 51.3169 21.3801 51.13V25.35H19.1602Z" fill="#5E5E5E"/>
<path d="M54.6806 21.1C50.1796 21.4663 45.7649 22.543 41.6006 24.29L39.6006 25.1V54.43L40.9606 53.87C45.2669 52.0679 49.8288 50.9511 54.4806 50.56L55.7806 50.45V21L54.6606 21.1H54.6806Z" fill="#5E5E5E"/>
<path d="M52.66 23.22C48.73 23.55 44.88 23.58 41.25 25.1L39.25 25.82V53.17L40.66 52.67C44.42 51.1 48.39 49.23 52.45 48.89L53.59 48.79V23.14L52.59 23.22H52.66Z" fill="#C82026"/>
<path d="M57.2798 25.35V51.09C57.2804 51.2763 57.2107 51.4559 57.0847 51.5931C56.9586 51.7303 56.7855 51.8149 56.5998 51.83L54.5998 52C54.0598 52 53.5198 52.1 52.9798 52.16L52.4498 52.24C52.0898 52.29 51.7298 52.33 51.3798 52.39L50.7398 52.5L49.7398 52.68L49.0798 52.82C48.7664 52.88 48.4564 52.95 48.1498 53.03L47.4798 53.19L46.5698 53.43L45.9098 53.62L45.0098 53.9L44.3598 54.12L43.4598 54.43L42.8198 54.66L42.5498 54.77H59.4798V25.35H57.2798Z" fill="#5E5E5E"/>
<path d="M35.8203 32.31C35.9134 32.2633 36.0162 32.2393 36.1204 32.24C36.2214 32.2381 36.3213 32.2622 36.4103 32.31L43.4103 37.38C43.5008 37.431 43.5762 37.5051 43.6289 37.5946C43.6816 37.6842 43.7096 37.7861 43.7103 37.89C43.7089 37.9924 43.6804 38.0926 43.6277 38.1804C43.575 38.2682 43.5 38.3405 43.4103 38.39L36.4103 43.46C36.3197 43.509 36.2184 43.5346 36.1153 43.5346C36.0123 43.5346 35.9109 43.509 35.8203 43.46C35.731 43.4084 35.657 43.334 35.6061 43.2444C35.5551 43.1547 35.529 43.0531 35.5303 42.95V32.82C35.531 32.7172 35.558 32.6164 35.6088 32.5271C35.6595 32.4378 35.7323 32.3631 35.8203 32.31V32.31Z" fill="white"/>
<path d="M49.6905 57.5701L48.2205 52.0301H50.0905C50.1611 52.0301 50.2303 52.0105 50.2903 51.9734C50.3504 51.9363 50.399 51.8832 50.4305 51.8201C50.4701 51.7609 50.4912 51.6913 50.4912 51.6201C50.4912 51.5489 50.4701 51.4793 50.4305 51.4201L45.6805 45.2801C45.636 45.2215 45.5755 45.1771 45.5063 45.1522C45.437 45.1274 45.3621 45.1232 45.2905 45.1401C45.218 45.1575 45.1525 45.1964 45.1026 45.2518C45.0526 45.3071 45.0205 45.3762 45.0105 45.4501L43.8205 53.1201C43.8101 53.192 43.8196 53.2653 43.8478 53.3323C43.876 53.3992 43.9219 53.4572 43.9805 53.5001C44.0406 53.5373 44.1099 53.557 44.1805 53.557C44.2512 53.557 44.3204 53.5373 44.3805 53.5001L46.0105 52.5901L47.4705 58.1201C47.4997 58.2191 47.5636 58.3043 47.6505 58.3601C47.7441 58.3945 47.8469 58.3945 47.9405 58.3601L49.4505 57.9701C49.5495 57.9441 49.6344 57.8803 49.6868 57.7924C49.7391 57.7045 49.7549 57.5995 49.7305 57.5001L49.6905 57.5701Z" fill="#C82026" stroke="#C82026" stroke-width="2.3"/>
<path d="M45.0704 42.9399C45.0452 42.8418 44.982 42.7577 44.8948 42.7062C44.8076 42.6546 44.7035 42.6398 44.6054 42.665C44.5073 42.6902 44.4231 42.7533 44.3716 42.8405C44.32 42.9277 44.3052 43.0318 44.3304 43.13L44.6303 44.29C44.6567 44.385 44.7173 44.4669 44.8004 44.52C44.8462 44.5395 44.8955 44.5496 44.9454 44.5496C44.9952 44.5496 45.0445 44.5395 45.0904 44.52C45.139 44.5082 45.1848 44.487 45.2253 44.4575C45.2657 44.428 45.2999 44.3909 45.3259 44.3481C45.3519 44.3054 45.3692 44.2579 45.3769 44.2085C45.3845 44.159 45.3823 44.1086 45.3704 44.06L45.0704 42.9399Z" fill="#C82026" stroke="#C82026" stroke-width="2.3"/>
<path d="M43.9806 45.3499C44.0286 45.2619 44.0408 45.1587 44.0147 45.0619C43.9887 44.9651 43.9263 44.882 43.8406 44.8299L42.8406 44.2199C42.7525 44.1719 42.6494 44.1597 42.5526 44.1858C42.4557 44.2118 42.3726 44.2742 42.3206 44.3599C42.2941 44.4029 42.2767 44.4508 42.2695 44.5007C42.2622 44.5506 42.2652 44.6014 42.2783 44.6501C42.2914 44.6988 42.3144 44.7443 42.3457 44.7839C42.3771 44.8234 42.4162 44.8561 42.4606 44.8799L43.4606 45.4899C43.5486 45.5379 43.6518 45.5502 43.7486 45.5241C43.8454 45.498 43.9286 45.4356 43.9806 45.3499V45.3499Z" fill="#C82026" stroke="#C82026" stroke-width="2.3"/>
<path d="M43.2799 46.2899L42.1199 46.5899C42.0666 46.597 42.0153 46.6154 41.9696 46.6438C41.9239 46.6722 41.8847 46.7099 41.8547 46.7546C41.8247 46.7992 41.8045 46.8498 41.7954 46.9028C41.7864 46.9559 41.7888 47.0103 41.8023 47.0623C41.8159 47.1144 41.8403 47.163 41.8741 47.2049C41.9078 47.2468 41.9501 47.2811 41.9981 47.3055C42.046 47.3298 42.0987 47.3437 42.1524 47.3462C42.2062 47.3487 42.2599 47.3397 42.3099 47.3199L43.4699 47.0199C43.5663 46.9941 43.6486 46.9313 43.6992 46.8453C43.7497 46.7592 43.7644 46.6567 43.7399 46.5599C43.7283 46.5115 43.7071 46.4659 43.6774 46.4259C43.6478 46.3859 43.6103 46.3522 43.5674 46.327C43.5244 46.3018 43.4768 46.2855 43.4274 46.2792C43.378 46.2728 43.3279 46.2765 43.2799 46.2899Z" fill="#C82026" stroke="#C82026" stroke-width="2.3"/>
<path d="M46.4502 44.7099C46.4925 44.7368 46.5399 44.7547 46.5894 44.7627C46.6389 44.7707 46.6895 44.7686 46.7381 44.7564C46.7867 44.7443 46.8324 44.7223 46.8723 44.692C46.9122 44.6617 46.9455 44.6235 46.9702 44.5799L47.5802 43.5799C47.6102 43.5372 47.6312 43.4888 47.6416 43.4376C47.6521 43.3865 47.6519 43.3337 47.6411 43.2826C47.6302 43.2316 47.609 43.1833 47.5787 43.1408C47.5484 43.0983 47.5096 43.0625 47.4648 43.0356C47.42 43.0087 47.3702 42.9914 47.3184 42.9846C47.2667 42.9779 47.2141 42.9819 47.1639 42.9964C47.1137 43.0108 47.0671 43.0355 47.0269 43.0688C46.9867 43.1021 46.9538 43.1433 46.9303 43.1899L46.3202 44.1899C46.2934 44.2323 46.2754 44.2796 46.2674 44.3291C46.2594 44.3786 46.2616 44.4292 46.2738 44.4778C46.2859 44.5264 46.3078 44.5721 46.3382 44.612C46.3685 44.6519 46.4066 44.6852 46.4502 44.7099V44.7099Z" fill="#C82026" stroke="#C82026" stroke-width="2.3"/>
<path d="M47.4403 45.8699C47.5278 45.921 47.6308 45.9388 47.7304 45.9199L48.8903 45.6199C48.9885 45.5947 49.0726 45.5316 49.1242 45.4444C49.1757 45.3572 49.1905 45.2531 49.1653 45.1549C49.1402 45.0568 49.077 44.9727 48.9898 44.9211C48.9026 44.8695 48.7985 44.8547 48.7003 44.8799L47.5403 45.1799C47.444 45.2058 47.3616 45.2685 47.3111 45.3546C47.2606 45.4407 47.2459 45.5432 47.2703 45.6399C47.2803 45.6883 47.3006 45.734 47.33 45.7737C47.3593 45.8134 47.397 45.8462 47.4403 45.8699V45.8699Z" fill="#C82026" stroke="#C82026" stroke-width="2.3"/>
<path d="M49.6905 57.5701L48.2205 52.0301H50.0905C50.1611 52.0301 50.2303 52.0105 50.2903 51.9734C50.3504 51.9363 50.399 51.8832 50.4305 51.8201C50.4701 51.7609 50.4912 51.6913 50.4912 51.6201C50.4912 51.5489 50.4701 51.4793 50.4305 51.4201L45.6805 45.2801C45.636 45.2215 45.5755 45.1771 45.5063 45.1522C45.437 45.1274 45.3621 45.1232 45.2905 45.1401C45.218 45.1575 45.1525 45.1964 45.1026 45.2518C45.0526 45.3071 45.0205 45.3762 45.0105 45.4501L43.8205 53.1201C43.8101 53.192 43.8196 53.2653 43.8478 53.3323C43.876 53.3992 43.9219 53.4572 43.9805 53.5001C44.0406 53.5373 44.1099 53.557 44.1805 53.557C44.2512 53.557 44.3204 53.5373 44.3805 53.5001L46.0105 52.5901L47.4705 58.1201C47.4997 58.2191 47.5636 58.3043 47.6505 58.3601C47.7441 58.3945 47.8469 58.3945 47.9405 58.3601L49.4505 57.9701C49.5495 57.9441 49.6344 57.8803 49.6868 57.7924C49.7391 57.7045 49.7549 57.5995 49.7305 57.5001L49.6905 57.5701Z" fill="white"/>
<path d="M45.0704 42.9399C45.0452 42.8418 44.982 42.7577 44.8948 42.7062C44.8076 42.6546 44.7035 42.6398 44.6054 42.665C44.5073 42.6902 44.4231 42.7533 44.3716 42.8405C44.32 42.9277 44.3052 43.0318 44.3304 43.13L44.6303 44.29C44.6567 44.385 44.7173 44.4669 44.8004 44.52C44.8462 44.5395 44.8955 44.5496 44.9454 44.5496C44.9952 44.5496 45.0445 44.5395 45.0904 44.52C45.139 44.5082 45.1848 44.487 45.2253 44.4575C45.2657 44.428 45.2999 44.3909 45.3259 44.3481C45.3519 44.3054 45.3692 44.2579 45.3769 44.2085C45.3845 44.159 45.3823 44.1086 45.3704 44.06L45.0704 42.9399Z" fill="white"/>
<path d="M43.9806 45.3499C44.0286 45.2619 44.0408 45.1587 44.0147 45.0619C43.9887 44.9651 43.9263 44.882 43.8406 44.8299L42.8406 44.2199C42.7525 44.1719 42.6494 44.1597 42.5526 44.1858C42.4557 44.2118 42.3726 44.2742 42.3206 44.3599C42.2941 44.4029 42.2767 44.4508 42.2695 44.5007C42.2622 44.5506 42.2652 44.6014 42.2783 44.6501C42.2914 44.6988 42.3144 44.7443 42.3457 44.7839C42.3771 44.8234 42.4162 44.8561 42.4606 44.8799L43.4606 45.4899C43.5486 45.5379 43.6518 45.5502 43.7486 45.5241C43.8454 45.498 43.9286 45.4356 43.9806 45.3499V45.3499Z" fill="white"/>
<path d="M43.2799 46.2899L42.1199 46.5899C42.0666 46.597 42.0153 46.6154 41.9696 46.6438C41.9239 46.6722 41.8847 46.7099 41.8547 46.7546C41.8247 46.7992 41.8045 46.8498 41.7954 46.9028C41.7864 46.9559 41.7888 47.0103 41.8023 47.0623C41.8159 47.1144 41.8403 47.163 41.8741 47.2049C41.9078 47.2468 41.9501 47.2811 41.9981 47.3055C42.046 47.3298 42.0987 47.3437 42.1524 47.3462C42.2062 47.3487 42.2599 47.3397 42.3099 47.3199L43.4699 47.0199C43.5663 46.9941 43.6486 46.9313 43.6992 46.8453C43.7497 46.7592 43.7644 46.6567 43.7399 46.5599C43.7283 46.5115 43.7071 46.4659 43.6774 46.4259C43.6478 46.3859 43.6103 46.3522 43.5674 46.327C43.5244 46.3018 43.4768 46.2855 43.4274 46.2792C43.378 46.2728 43.3279 46.2765 43.2799 46.2899Z" fill="white"/>
<path d="M46.4502 44.7099C46.4925 44.7368 46.5399 44.7547 46.5894 44.7627C46.6389 44.7707 46.6895 44.7686 46.7381 44.7564C46.7867 44.7443 46.8324 44.7223 46.8723 44.692C46.9122 44.6617 46.9455 44.6235 46.9702 44.5799L47.5802 43.5799C47.6102 43.5372 47.6312 43.4888 47.6416 43.4376C47.6521 43.3865 47.6519 43.3337 47.6411 43.2826C47.6302 43.2316 47.609 43.1833 47.5787 43.1408C47.5484 43.0983 47.5096 43.0625 47.4648 43.0356C47.42 43.0087 47.3702 42.9914 47.3184 42.9846C47.2667 42.9779 47.2141 42.9819 47.1639 42.9964C47.1137 43.0108 47.0671 43.0355 47.0269 43.0688C46.9867 43.1021 46.9538 43.1433 46.9303 43.1899L46.3202 44.1899C46.2934 44.2323 46.2754 44.2796 46.2674 44.3291C46.2594 44.3786 46.2616 44.4292 46.2738 44.4778C46.2859 44.5264 46.3078 44.5721 46.3382 44.612C46.3685 44.6519 46.4066 44.6852 46.4502 44.7099V44.7099Z" fill="white"/>
<path d="M47.4403 45.8699C47.5278 45.921 47.6308 45.9388 47.7304 45.9199L48.8903 45.6199C48.9885 45.5947 49.0726 45.5316 49.1242 45.4444C49.1757 45.3572 49.1905 45.2531 49.1653 45.1549C49.1402 45.0568 49.077 44.9727 48.9898 44.9211C48.9026 44.8695 48.7985 44.8547 48.7003 44.8799L47.5403 45.1799C47.444 45.2058 47.3616 45.2685 47.3111 45.3546C47.2606 45.4407 47.2459 45.5432 47.2703 45.6399C47.2803 45.6883 47.3006 45.734 47.33 45.7737C47.3593 45.8134 47.397 45.8462 47.4403 45.8699V45.8699Z" fill="white"/>
</svg>