<svg width="80" height="80" viewBox="0 0 80 80" fill="none" xmlns="http://www.w3.org/2000/svg">
<rect width="80" height="80" rx="40" fill="none"/>
<path d="M23.6396 36.8203C23.5725 36.8207 23.5075 36.8436 23.4549 36.8853C23.4023 36.9269 23.3653 36.9851 23.3496 37.0503L17.0996 52.6503V53.1903C17.0996 53.6003 17.0996 53.7403 17.3996 53.7403H41.8296C42.1312 53.7416 42.425 53.6447 42.6667 53.4643C42.9085 53.2839 43.085 53.0298 43.1696 52.7403L48.7496 37.3603V36.8203H23.6396Z" fill="#C82026"/>
<path d="M22.95 35.72H45.47V32.3C45.4674 31.9066 45.3092 31.5301 45.0301 31.2529C44.7509 30.9756 44.3735 30.82 43.98 30.82H30.47L27.7401 27H17.5C17.1039 27 16.7239 27.1566 16.4429 27.4358C16.1619 27.7149 16.0026 28.0939 16 28.49V51.3L21.6201 36.72C21.7013 36.4305 21.8755 36.1757 22.1158 35.995C22.3562 35.8142 22.6493 35.7176 22.95 35.72V35.72Z" fill="#C82026"/>
<path d="M56.1698 27.99H36.2598V52.87H56.1698V27.99Z" fill="white"/>
<path d="M49.9995 31.09H40.2795C39.9347 31.09 39.604 31.2269 39.3602 31.4707C39.1164 31.7145 38.9795 32.0452 38.9795 32.39C38.9795 32.7348 39.1164 33.0654 39.3602 33.3092C39.604 33.553 39.9347 33.69 40.2795 33.69H50.0195C50.3643 33.69 50.6949 33.553 50.9387 33.3092C51.1825 33.0654 51.3195 32.7348 51.3195 32.39C51.3195 32.0452 51.1825 31.7145 50.9387 31.4707C50.6949 31.2269 50.3643 31.09 50.0195 31.09H49.9995Z" fill="#3D3D3D"/>
<path d="M51.2795 37.26C51.2795 37.0893 51.2459 36.9202 51.1805 36.7625C51.1152 36.6048 51.0195 36.4615 50.8987 36.3408C50.778 36.22 50.6347 36.1243 50.477 36.059C50.3193 35.9936 50.1502 35.96 49.9795 35.96H40.2795C39.9347 35.96 39.604 36.097 39.3602 36.3408C39.1164 36.5846 38.9795 36.9152 38.9795 37.26C38.9795 37.6048 39.1164 37.9355 39.3602 38.1793C39.604 38.4231 39.9347 38.56 40.2795 38.56H50.0195C50.3643 38.56 50.6949 38.4231 50.9387 38.1793C51.1825 37.9355 51.3195 37.6048 51.3195 37.26H51.2795Z" fill="#3D3D3D"/>
<path d="M45.1295 43.4301C45.4742 43.4301 45.8049 43.2931 46.0487 43.0493C46.2925 42.8055 46.4295 42.4748 46.4295 42.1301C46.4295 41.7853 46.2925 41.4546 46.0487 41.2108C45.8049 40.967 45.4742 40.8301 45.1295 40.8301H40.2795C39.9347 40.8301 39.604 40.967 39.3602 41.2108C39.1164 41.4546 38.9795 41.7853 38.9795 42.1301C38.9795 42.4748 39.1164 42.8055 39.3602 43.0493C39.604 43.2931 39.9347 43.4301 40.2795 43.4301H45.1295Z" fill="#3D3D3D"/>
<path d="M54.9398 47.82L53.5798 48.72V51.95H36.6898V28.6H53.5798V33.73L56.1699 29.23V27.3C56.1699 26.9552 56.0329 26.6246 55.7891 26.3808C55.5453 26.137 55.2147 26 54.8699 26H35.3898C35.0451 26 34.7144 26.137 34.4706 26.3808C34.2268 26.6246 34.0898 26.9552 34.0898 27.3V53.3C34.0898 53.6448 34.2268 53.9754 34.4706 54.2192C34.7144 54.463 35.0451 54.6 35.3898 54.6H54.8699C55.2147 54.6 55.5453 54.463 55.7891 54.2192C56.0329 53.9754 56.1699 53.6448 56.1699 53.3V46.12L55.5499 47.19C55.4013 47.4549 55.1923 47.6811 54.9398 47.85V47.82Z" fill="#3D3D3D"/>
<path d="M62.6198 32.02C62.4478 31.5493 62.1817 31.1186 61.8379 30.7542C61.494 30.3897 61.0796 30.099 60.6198 29.9C60.2155 29.612 59.758 29.4071 59.2739 29.2972C58.7898 29.1873 58.2888 29.1747 57.7998 29.26C57.646 29.3151 57.5155 29.4209 57.4298 29.56L49.3197 43.62C49.2689 43.7089 49.2382 43.8079 49.2297 43.91L48.9298 48.98C48.9201 49.1001 48.9451 49.2205 49.0018 49.3268C49.0586 49.4332 49.1446 49.5211 49.2497 49.58C49.3516 49.6439 49.4695 49.6778 49.5897 49.6778C49.71 49.6778 49.8279 49.6439 49.9298 49.58L54.1697 46.78C54.2562 46.7287 54.3284 46.6565 54.3797 46.57L62.4997 32.5C62.5772 32.3599 62.6021 32.1968 62.5697 32.04L62.6198 32.02ZM51.6198 47.31C51.3868 47.1318 51.1429 46.9681 50.8897 46.82C50.6389 46.6752 50.3783 46.5482 50.1097 46.44L50.1997 44.92C50.7247 45.0032 51.2279 45.1901 51.6798 45.47C52.1423 45.7243 52.5528 46.0636 52.8897 46.47L51.6198 47.31Z" fill="#ED1C24"/>
<path d="M43.15 49.4301C43.15 49.6901 43.49 49.7701 43.69 49.8601C43.89 49.9501 44.12 49.7801 44.28 49.7001C45.28 49.2201 46.61 49.7901 47.68 49.7901C47.8126 49.7901 47.9398 49.7374 48.0335 49.6436C48.1273 49.5498 48.18 49.4227 48.18 49.2901C48.18 49.1575 48.1273 49.0303 48.0335 48.9365C47.9398 48.8428 47.8126 48.7901 47.68 48.7901C46.5186 48.6537 45.3477 48.6169 44.18 48.6801C44.1749 48.5759 44.1401 48.4753 44.08 48.3901C44.0147 48.2325 43.8984 48.1015 43.7497 48.018C43.6009 47.9346 43.4284 47.9036 43.26 47.9301C43.2468 47.8807 43.2266 47.8336 43.2 47.7901C43.1669 47.7344 43.122 47.6868 43.0684 47.6505C43.0149 47.6142 42.9539 47.5901 42.89 47.5801C43.0882 47.3377 43.2268 47.0522 43.2945 46.7465C43.3623 46.4408 43.3573 46.1235 43.28 45.8201C43.2367 45.7471 43.1753 45.6867 43.1017 45.6446C43.028 45.6026 42.9448 45.5803 42.86 45.5801C42.21 45.5801 41.66 46.2401 41.24 46.6501C40.2091 47.7009 39.2502 48.8201 38.37 50.0001C37.99 50.5001 38.84 51.0001 39.22 50.4901C40.0033 49.4568 40.8481 48.4717 41.75 47.5401C41.53 47.8901 41.3 48.2401 41.06 48.5401C40.71 49.0801 41.54 49.5401 41.9 49.0301C41.9803 48.9087 42.0861 48.8063 42.21 48.7301C42.21 48.7301 42.21 48.8401 42.14 48.9001C42.1362 48.9366 42.1362 48.9735 42.14 49.0101C41.92 49.5601 42.73 49.8001 43.03 49.3901C43.1062 49.2826 43.1731 49.1689 43.23 49.0501C43.221 49.1499 43.221 49.2503 43.23 49.3501L43.15 49.4301Z" fill="#ED1C24"/>
</svg>