<svg width="80" height="80" viewBox="0 0 80 80" fill="none" xmlns="http://www.w3.org/2000/svg">
<rect width="80" height="80" rx="40" fill="none"/>
<path d="M48.5198 55.0099H43.5198C43.4764 55.0099 43.4335 55.0013 43.3935 54.9848C43.3535 54.9682 43.3171 54.9439 43.2864 54.9132C43.2558 54.8826 43.2315 54.8462 43.2149 54.8062C43.1983 54.7661 43.1898 54.7232 43.1898 54.6799V53.4599C43.1898 53.3724 43.155 53.2884 43.0931 53.2265C43.0313 53.1646 42.9473 53.1299 42.8598 53.1299H35.7798C35.7369 53.1299 35.6945 53.1384 35.655 53.1552C35.6155 53.1719 35.5798 53.1963 35.5499 53.2271C35.5201 53.2579 35.4967 53.2944 35.4812 53.3344C35.4657 53.3743 35.4584 53.417 35.4598 53.4599V54.6799C35.4598 54.7232 35.4513 54.7661 35.4347 54.8062C35.4181 54.8462 35.3938 54.8826 35.3632 54.9132C35.3325 54.9439 35.2961 54.9682 35.256 54.9848C35.216 55.0013 35.1731 55.0099 35.1298 55.0099H30.1298C30.0869 55.0085 30.0443 55.0158 30.0043 55.0313C29.9643 55.0468 29.9278 55.0701 29.897 55.1C29.8663 55.1298 29.8418 55.1656 29.8251 55.2051C29.8084 55.2446 29.7998 55.287 29.7998 55.3299V56.7399C29.7998 56.7832 29.8083 56.8261 29.8249 56.8662C29.8415 56.9062 29.8658 56.9426 29.8964 56.9732C29.9271 57.0039 29.9634 57.0282 30.0035 57.0448C30.0435 57.0613 30.0864 57.0699 30.1298 57.0699H48.5298C48.5731 57.0699 48.616 57.0613 48.6561 57.0448C48.6961 57.0282 48.7325 57.0039 48.7631 56.9732C48.7938 56.9426 48.8181 56.9062 48.8347 56.8662C48.8512 56.8261 48.8598 56.7832 48.8598 56.7399V55.3299C48.8599 55.2861 48.851 55.2428 48.8337 55.2026C48.8164 55.1624 48.791 55.1262 48.7591 55.0962C48.7272 55.0662 48.6895 55.0431 48.6484 55.0282C48.6072 55.0134 48.5635 55.0071 48.5198 55.0099V55.0099Z" fill="#3D3D3D"/>
<path d="M59.4504 30.49V24.25C59.4478 23.6523 59.2085 23.0801 58.785 22.6584C58.3614 22.2367 57.7881 22 57.1904 22H21.4504C20.8528 22 20.2794 22.2367 19.8559 22.6584C19.4324 23.0801 19.1931 23.6523 19.1904 24.25V49.09C19.1904 49.6894 19.4286 50.2642 19.8524 50.6881C20.2762 51.1119 20.8511 51.35 21.4504 51.35H57.1904C57.7898 51.35 58.3647 51.1119 58.7885 50.6881C59.2123 50.2642 59.4504 49.6894 59.4504 49.09V30.49ZM40.3405 48.41C40.3405 48.6078 40.2818 48.8011 40.1719 48.9656C40.0621 49.13 39.9059 49.2582 39.7231 49.3339C39.5404 49.4096 39.3394 49.4294 39.1454 49.3908C38.9514 49.3522 38.7732 49.257 38.6334 49.1171C38.4935 48.9773 38.3983 48.7991 38.3597 48.6051C38.3211 48.4111 38.3409 48.21 38.4166 48.0273C38.4923 47.8446 38.6205 47.6884 38.7849 47.5785C38.9494 47.4687 39.1427 47.41 39.3405 47.41C39.6057 47.41 39.86 47.5154 40.0475 47.7029C40.2351 47.8904 40.3405 48.1448 40.3405 48.41ZM46.3405 46.3H20.9005V30.85C20.9005 30.72 20.9005 30.5 20.9005 30.15V24.25C20.9005 24.1041 20.9584 23.9642 21.0615 23.8611C21.1647 23.7579 21.3046 23.7 21.4504 23.7H57.1904C57.3363 23.7 57.4762 23.7579 57.5793 23.8611C57.6825 23.9642 57.7405 24.1041 57.7405 24.25V30.12C57.7405 30.47 57.7405 30.69 57.7405 30.82V46.27L46.3405 46.3Z" fill="#3D3D3D"/>
<path d="M41.04 37.0198H24.51C23.7 37.0198 23.04 36.5298 23.04 35.9298C23.04 35.3298 23.7 34.8398 24.51 34.8398H41.04C41.86 34.8398 42.52 35.3298 42.52 35.9298C42.52 36.5298 41.86 37.0198 41.04 37.0198Z" fill="#D1D3D4"/>
<path d="M41.04 40.5697H24.51C23.7 40.5697 23.04 40.0796 23.04 39.4796C23.04 38.8796 23.7 38.3896 24.51 38.3896H41.04C41.86 38.3896 42.52 38.8796 42.52 39.4796C42.52 40.0796 41.86 40.5697 41.04 40.5697Z" fill="#D1D3D4"/>
<path d="M41.04 44.1099H24.51C23.7 44.1099 23.04 43.6299 23.04 43.0299C23.04 42.4299 23.7 41.9399 24.51 41.9399H41.04C41.86 41.9399 42.52 42.4299 42.52 43.0299C42.52 43.6299 41.86 44.1099 41.04 44.1099Z" fill="#D1D3D4"/>
<path d="M54.0203 37.0198H45.5103C44.6903 37.0198 44.0303 36.5298 44.0303 35.9298C44.0303 35.3298 44.6903 34.8398 45.5103 34.8398H54.0203C54.8303 34.8398 55.4903 35.3298 55.4903 35.9298C55.4903 36.5298 54.8303 37.0198 54.0203 37.0198Z" fill="#D1D3D4"/>
<path d="M54.0203 40.5697H45.5103C44.6903 40.5697 44.0303 40.0796 44.0303 39.4796C44.0303 38.8796 44.6903 38.3896 45.5103 38.3896H54.0203C54.8303 38.3896 55.4903 38.8796 55.4903 39.4796C55.4903 40.0796 54.8303 40.5697 54.0203 40.5697Z" fill="#D1D3D4"/>
<path d="M54.0203 44.1099H45.5103C44.6903 44.1099 44.0303 43.6299 44.0303 43.0299C44.0303 42.4299 44.6903 41.9399 45.5103 41.9399H54.0203C54.8303 41.9399 55.4903 42.4299 55.4903 43.0299C55.4903 43.6299 54.8303 44.1099 54.0203 44.1099Z" fill="#D1D3D4"/>
<path d="M55.4896 32.6699C55.4896 33.0699 55.0496 33.3999 54.4896 33.3999H24.0195C23.4795 33.3999 23.0195 33.0699 23.0195 32.6699V26.5899C23.0195 26.1899 23.4595 25.8599 24.0195 25.8599H54.5095C55.0495 25.8599 55.5095 26.1899 55.5095 26.5899L55.4896 32.6699Z" fill="#D1D3D4"/>
<path d="M54.4096 42.7997L50.2996 44.7597L55.7996 50.8197L53.1496 53.2097L47.6596 46.9997L45.1596 51.0197L42.0996 38.1497L54.4096 42.7997Z" fill="#C82026"/>
<path d="M42.11 38.1497L54.42 42.7997L50.28 44.7497L55.78 50.8197L53.1499 53.2497L47.67 47.0497L45.16 51.0497L42.16 38.1897L42.11 38.1497ZM42.16 37.0397C41.8806 37.035 41.6095 37.1348 41.3999 37.3197C41.2429 37.4576 41.1265 37.6356 41.063 37.8347C40.9996 38.0338 40.9917 38.2464 41.04 38.4497L44.04 51.3197C44.0944 51.5391 44.2112 51.7379 44.3762 51.8923C44.5412 52.0467 44.7475 52.15 44.97 52.1897H45.16C45.3588 52.1921 45.5549 52.1438 45.7299 52.0493C45.9049 51.9548 46.0529 51.8173 46.16 51.6497L47.85 48.9397L52.31 53.9997C52.4116 54.1128 52.5346 54.2046 52.6719 54.2698C52.8092 54.335 52.9581 54.3724 53.11 54.3797H53.17C53.4536 54.3813 53.7278 54.278 53.9399 54.0897L56.59 51.6997C56.703 51.5981 56.7948 51.4751 56.86 51.3378C56.9253 51.2004 56.9626 51.0515 56.97 50.8997C56.9821 50.5945 56.8745 50.2966 56.67 50.0697L52.2099 45.1597L54.93 43.8597C55.1342 43.7657 55.3054 43.6124 55.4213 43.4198C55.5372 43.2272 55.5925 43.0042 55.5799 42.7797C55.5667 42.5593 55.4898 42.3474 55.3584 42.1699C55.227 41.9924 55.0469 41.8568 54.84 41.7797L42.53 37.1297C42.4022 37.0815 42.2665 37.0578 42.1299 37.0597L42.16 37.0397Z" fill="white"/>
</svg>