<svg width="80" height="80" viewBox="0 0 80 80" fill="none" xmlns="http://www.w3.org/2000/svg">
<rect width="80" height="80" rx="40" fill="none"/>
<path d="M31.3235 22.0872L25.0166 57.8555L53.4677 62.8722L59.7746 27.1039L31.3235 22.0872Z" fill="#3D3D3D"/>
<path d="M32.1026 23.1909L26.1309 57.0585L52.6813 61.74L58.6531 27.8725L32.1026 23.1909Z" fill="white"/>
<path d="M28.426 17.9378L22.1191 53.7061L50.5703 58.7228L56.8772 22.9545L28.426 17.9378Z" fill="#3D3D3D"/>
<path d="M29.213 19.0698L23.2412 52.9373L49.7916 57.6188L55.7634 23.7513L29.213 19.0698Z" fill="white"/>
<path d="M49.1301 25H18.8701V62.69H49.1301V25Z" fill="white"/>
<path d="M41.2898 59.8H19.5498V25.69L41.2898 17.02V59.8Z" fill="#58595B"/>
<path d="M45.4098 61.1801H19.5498V25.5501L45.4098 18.3901V61.1801Z" fill="white"/>
<path d="M45.4098 61.0401H19.5498V25.6901L45.4098 20.6001V61.0401Z" fill="#58595B"/>
<path d="M48.4398 25.6899H19.5498V62.0099H48.4398V25.6899Z" fill="#E11F26"/>
<path d="M39.94 35.0098H28.04V40.0998H39.94V35.0098Z" fill="white"/>
<path d="M39.94 43.4902H28.04V45.2202H39.94V43.4902Z" fill="white"/>
<path d="M39.94 46.8799H28.04V48.6099H39.94V46.8799Z" fill="white"/>
<path d="M39.94 50.27H28.04V52H39.94V50.27Z" fill="white"/>
<path d="M26.3496 29.88V28.23H22.0996V32.48H23.8096V29.88H26.3496Z" fill="white"/>
<path d="M41.6396 29.88V28.23H45.8896V32.48H44.1796V29.88H41.6396Z" fill="white"/>
<path d="M26.3496 57.9701V59.6201H22.0996V55.3701H23.8096V57.9701H26.3496Z" fill="white"/>
<path d="M41.6396 57.9701V59.6201H45.8896V55.3701H44.1796V57.9701H41.6396Z" fill="white"/>
</svg>