<svg width="80" height="80" viewBox="0 0 80 80" fill="none" xmlns="http://www.w3.org/2000/svg">
<rect width="80" height="80" rx="40" fill="none"/>
<path d="M53.5198 24H25.1098C23.8562 24 22.8398 25.0163 22.8398 26.27V54.68C22.8398 55.9337 23.8562 56.95 25.1098 56.95H53.5198C54.7735 56.95 55.7898 55.9337 55.7898 54.68V26.27C55.7898 25.0163 54.7735 24 53.5198 24Z" stroke="#E11F26" stroke-width="0.86" stroke-miterlimit="10"/>
<path d="M55.7897 26.2701V30.8201H22.8497V26.2701C22.847 25.9713 22.9039 25.6749 23.0171 25.3983C23.1302 25.1216 23.2973 24.8703 23.5086 24.659C23.72 24.4477 23.9712 24.2806 24.2478 24.1674C24.5244 24.0543 24.8209 23.9974 25.1197 24.0001H53.5197C53.8185 23.9974 54.1149 24.0543 54.3915 24.1674C54.6681 24.2806 54.9194 24.4477 55.1308 24.659C55.3421 24.8703 55.5092 25.1216 55.6223 25.3983C55.7355 25.6749 55.7924 25.9713 55.7897 26.2701V26.2701Z" fill="#E11F26"/>
<path d="M26.2804 26.2701C26.5063 26.2681 26.7277 26.3332 26.9164 26.4573C27.1052 26.5813 27.2529 26.7587 27.3407 26.9668C27.4285 27.1749 27.4525 27.4045 27.4097 27.6263C27.3668 27.8481 27.2591 28.0521 27.1 28.2125C26.941 28.373 26.7379 28.4826 26.5165 28.5274C26.2951 28.5722 26.0654 28.5502 25.8565 28.4642C25.6476 28.3782 25.469 28.2321 25.3433 28.0444C25.2175 27.8567 25.1504 27.6359 25.1504 27.41C25.1504 27.1094 25.2691 26.821 25.4808 26.6075C25.6924 26.394 25.9798 26.2727 26.2804 26.2701Z" fill="white"/>
<path d="M30.8002 26.27C31.0256 26.27 31.246 26.3369 31.4335 26.4621C31.6209 26.5874 31.7671 26.7654 31.8534 26.9738C31.9397 27.1821 31.9623 27.4113 31.9183 27.6324C31.8743 27.8536 31.7657 28.0567 31.6063 28.2161C31.4468 28.3755 31.2437 28.4841 31.0226 28.5281C30.8014 28.5721 30.5722 28.5495 30.3639 28.4632C30.1556 28.3769 29.9776 28.2308 29.8523 28.0434C29.727 27.8559 29.6602 27.6355 29.6602 27.41C29.6602 27.1077 29.7803 26.8177 29.9941 26.6039C30.2079 26.3901 30.4978 26.27 30.8002 26.27V26.27Z" fill="white"/>
<path d="M35.34 26.2701C35.5659 26.2681 35.7872 26.3332 35.976 26.4573C36.1648 26.5813 36.3124 26.7587 36.4003 26.9668C36.4881 27.1749 36.5122 27.4045 36.4693 27.6263C36.4264 27.8481 36.3186 28.0521 36.1596 28.2125C36.0006 28.373 35.7975 28.4826 35.576 28.5274C35.3546 28.5722 35.125 28.5502 34.9161 28.4642C34.7072 28.3782 34.5285 28.2321 34.4028 28.0444C34.2771 27.8567 34.21 27.6359 34.21 27.41C34.2099 27.1094 34.3287 26.821 34.5403 26.6075C34.752 26.394 35.0394 26.2727 35.34 26.2701V26.2701Z" fill="white"/>
<path d="M49.5397 35.9302H44.9997C44.6849 35.9302 44.4297 36.1854 44.4297 36.5002V41.0402C44.4297 41.355 44.6849 41.6102 44.9997 41.6102H49.5397C49.8545 41.6102 50.1097 41.355 50.1097 41.0402V36.5002C50.1097 36.1854 49.8545 35.9302 49.5397 35.9302Z" fill="#E11F26"/>
<path d="M49.5397 46.1602H44.9997C44.6849 46.1602 44.4297 46.4154 44.4297 46.7302V51.2701C44.4297 51.5849 44.6849 51.8401 44.9997 51.8401H49.5397C49.8545 51.8401 50.1097 51.5849 50.1097 51.2701V46.7302C50.1097 46.4154 49.8545 46.1602 49.5397 46.1602Z" fill="#E11F26"/>
<path d="M31.9404 37.0603H27.3904C27.3099 37.071 27.2281 37.0645 27.1503 37.041C27.0726 37.0175 27.0007 36.9777 26.9396 36.9242C26.8785 36.8707 26.8296 36.8047 26.796 36.7308C26.7625 36.6568 26.7451 36.5765 26.7451 36.4953C26.7451 36.4141 26.7625 36.3338 26.796 36.2599C26.8296 36.1859 26.8785 36.1199 26.9396 36.0664C27.0007 36.0129 27.0726 35.9731 27.1503 35.9496C27.2281 35.9262 27.3099 35.9196 27.3904 35.9303H31.9404C32.0773 35.9485 32.203 36.0159 32.294 36.1198C32.385 36.2238 32.4351 36.3572 32.4351 36.4953C32.4351 36.6334 32.385 36.7669 32.294 36.8708C32.203 36.9747 32.0773 37.042 31.9404 37.0603Z" fill="#58595B"/>
<path d="M41.0198 37.0603H34.2098C34.1293 37.071 34.0474 37.0645 33.9697 37.041C33.8919 37.0175 33.8201 36.9777 33.759 36.9242C33.6979 36.8707 33.6489 36.8047 33.6154 36.7308C33.5818 36.6568 33.5645 36.5765 33.5645 36.4953C33.5645 36.4141 33.5818 36.3338 33.6154 36.2599C33.6489 36.1859 33.6979 36.1199 33.759 36.0664C33.8201 36.0129 33.8919 35.9731 33.9697 35.9496C34.0474 35.9262 34.1293 35.9196 34.2098 35.9303H41.0198C41.1003 35.9196 41.1821 35.9262 41.2599 35.9496C41.3376 35.9731 41.4095 36.0129 41.4706 36.0664C41.5317 36.1199 41.5806 36.1859 41.6142 36.2599C41.6477 36.3338 41.6651 36.4141 41.6651 36.4953C41.6651 36.5765 41.6477 36.6568 41.6142 36.7308C41.5806 36.8047 41.5317 36.8707 41.4706 36.9242C41.4095 36.9777 41.3376 37.0175 41.2599 37.041C41.1821 37.0645 41.1003 37.071 41.0198 37.0603V37.0603Z" fill="#58595B"/>
<path d="M41.0203 39.3403H27.3903C27.2399 39.3377 27.0965 39.2768 26.9901 39.1705C26.8838 39.0641 26.8229 38.9207 26.8203 38.7703C26.8203 38.6191 26.8804 38.4741 26.9873 38.3672C27.0942 38.2603 27.2391 38.2003 27.3903 38.2003H41.0203C41.0956 38.1989 41.1703 38.2127 41.2401 38.2409C41.3098 38.2691 41.3732 38.311 41.4264 38.3642C41.4796 38.4174 41.5215 38.4808 41.5497 38.5506C41.5778 38.6203 41.5917 38.6951 41.5903 38.7703C41.5903 38.9215 41.5303 39.0664 41.4234 39.1733C41.3165 39.2802 41.1715 39.3403 41.0203 39.3403V39.3403Z" fill="#58595B"/>
<path d="M34.2103 41.6102H27.3903C27.2391 41.6102 27.0942 41.5502 26.9873 41.4433C26.8804 41.3364 26.8203 41.1914 26.8203 41.0402C26.8203 40.889 26.8804 40.7441 26.9873 40.6372C27.0942 40.5303 27.2391 40.4702 27.3903 40.4702H34.2103C34.3615 40.4702 34.5065 40.5303 34.6134 40.6372C34.7203 40.7441 34.7803 40.889 34.7803 41.0402C34.7803 41.1914 34.7203 41.3364 34.6134 41.4433C34.5065 41.5502 34.3615 41.6102 34.2103 41.6102V41.6102Z" fill="#58595B"/>
<path d="M41.0201 41.6102H36.4802C36.329 41.6102 36.184 41.5502 36.0771 41.4433C35.9702 41.3364 35.9102 41.1914 35.9102 41.0402C35.9102 40.889 35.9702 40.7441 36.0771 40.6372C36.184 40.5303 36.329 40.4702 36.4802 40.4702H41.0201C41.1713 40.4702 41.3163 40.5303 41.4232 40.6372C41.5301 40.7441 41.5901 40.889 41.5901 41.0402C41.5901 41.1914 41.5301 41.3364 41.4232 41.4433C41.3163 41.5502 41.1713 41.6102 41.0201 41.6102V41.6102Z" fill="#58595B"/>
<path d="M31.9403 47.2904H27.3903C27.2391 47.2904 27.0942 47.2303 26.9873 47.1234C26.8804 47.0165 26.8203 46.8716 26.8203 46.7204C26.8203 46.5692 26.8804 46.4242 26.9873 46.3174C27.0942 46.2105 27.2391 46.1504 27.3903 46.1504H31.9403C32.0915 46.1504 32.2365 46.2105 32.3434 46.3174C32.4503 46.4242 32.5103 46.5692 32.5103 46.7204C32.5103 46.8716 32.4503 47.0165 32.3434 47.1234C32.2365 47.2303 32.0915 47.2904 31.9403 47.2904V47.2904Z" fill="#58595B"/>
<path d="M41.0197 47.2904H34.2097C34.0585 47.2904 33.9135 47.2303 33.8066 47.1234C33.6997 47.0165 33.6396 46.8716 33.6396 46.7204C33.6396 46.5692 33.6997 46.4242 33.8066 46.3174C33.9135 46.2105 34.0585 46.1504 34.2097 46.1504H41.0197C41.1708 46.1504 41.3158 46.2105 41.4227 46.3174C41.5296 46.4242 41.5897 46.5692 41.5897 46.7204C41.5897 46.8716 41.5296 47.0165 41.4227 47.1234C41.3158 47.2303 41.1708 47.2904 41.0197 47.2904V47.2904Z" fill="#58595B"/>
<path d="M41.0203 49.5599H27.3903C27.2391 49.5599 27.0942 49.4999 26.9873 49.393C26.8804 49.2861 26.8203 49.1411 26.8203 48.9899C26.8229 48.8395 26.8838 48.6961 26.9901 48.5897C27.0965 48.4834 27.2399 48.4225 27.3903 48.4199H41.0203C41.1715 48.4199 41.3165 48.48 41.4234 48.5869C41.5303 48.6937 41.5903 48.8387 41.5903 48.9899C41.5917 49.0651 41.5778 49.1399 41.5497 49.2096C41.5215 49.2794 41.4796 49.3428 41.4264 49.396C41.3732 49.4492 41.3098 49.4911 41.2401 49.5193C41.1703 49.5475 41.0956 49.5613 41.0203 49.5599V49.5599Z" fill="#58595B"/>
<path d="M34.2104 51.8303H27.3904C27.3099 51.8411 27.2281 51.8345 27.1503 51.811C27.0726 51.7875 27.0007 51.7477 26.9396 51.6942C26.8785 51.6407 26.8296 51.5747 26.796 51.5008C26.7625 51.4268 26.7451 51.3465 26.7451 51.2653C26.7451 51.1841 26.7625 51.1038 26.796 51.0298C26.8296 50.9559 26.8785 50.89 26.9396 50.8365C27.0007 50.783 27.0726 50.7431 27.1503 50.7196C27.2281 50.6962 27.3099 50.6896 27.3904 50.7003H34.2104C34.291 50.6896 34.3728 50.6962 34.4506 50.7196C34.5283 50.7431 34.6001 50.783 34.6613 50.8365C34.7224 50.89 34.7713 50.9559 34.8049 51.0298C34.8384 51.1038 34.8558 51.1841 34.8558 51.2653C34.8558 51.3465 34.8384 51.4268 34.8049 51.5008C34.7713 51.5747 34.7224 51.6407 34.6613 51.6942C34.6001 51.7477 34.5283 51.7875 34.4506 51.811C34.3728 51.8345 34.291 51.8411 34.2104 51.8303V51.8303Z" fill="#58595B"/>
<path d="M41.0203 51.8303H36.4803C36.3998 51.8411 36.3179 51.8345 36.2402 51.811C36.1624 51.7875 36.0906 51.7477 36.0295 51.6942C35.9684 51.6407 35.9194 51.5747 35.8859 51.5008C35.8523 51.4268 35.835 51.3465 35.835 51.2653C35.835 51.1841 35.8523 51.1038 35.8859 51.0298C35.9194 50.9559 35.9684 50.89 36.0295 50.8365C36.0906 50.783 36.1624 50.7431 36.2402 50.7196C36.3179 50.6962 36.3998 50.6896 36.4803 50.7003H41.0203C41.1008 50.6896 41.1826 50.6962 41.2604 50.7196C41.3381 50.7431 41.41 50.783 41.4711 50.8365C41.5322 50.89 41.5811 50.9559 41.6147 51.0298C41.6482 51.1038 41.6656 51.1841 41.6656 51.2653C41.6656 51.3465 41.6482 51.4268 41.6147 51.5008C41.5811 51.5747 41.5322 51.6407 41.4711 51.6942C41.41 51.7477 41.3381 51.7875 41.2604 51.811C41.1826 51.8345 41.1008 51.8411 41.0203 51.8303V51.8303Z" fill="#58595B"/>
<path d="M47.8401 50.1301C47.7653 50.1311 47.6911 50.1164 47.6223 50.0872C47.5534 50.0579 47.4913 50.0146 47.4401 49.9601L46.2801 48.8302C46.1727 48.7227 46.1123 48.5771 46.1123 48.4252C46.1123 48.2733 46.1727 48.1276 46.2801 48.0202C46.3875 47.9127 46.5332 47.8524 46.6851 47.8524C46.837 47.8524 46.9827 47.9127 47.0901 48.0202L47.7601 48.7001L50.7601 44.7001C50.8516 44.5795 50.9873 44.5001 51.1373 44.4794C51.2874 44.4588 51.4394 44.4986 51.5601 44.5901C51.6808 44.6816 51.7601 44.8173 51.7808 44.9674C51.8014 45.1174 51.7616 45.2695 51.6701 45.3902L48.2801 49.9001C48.2312 49.9645 48.1695 50.0182 48.099 50.0578C48.0285 50.0973 47.9506 50.1219 47.8701 50.1301H47.8401Z" fill="#58595B"/>
</svg>